<svg xmlns="http://www.w3.org/2000/svg" viewBox="0 0 108 108">
  <!-- Matches app adaptive icon: black background + ic_launcher_foreground -->
  <rect width="108" height="108" rx="24" fill="#000000"/>
  <path fill="#0277BD" d="M14,76 C24,60 38,56 50,62 C62,68 74,48 90,54 L88,60 C72,56 62,74 50,68 C38,62 26,66 16,82 Z"/>
  <path fill="#4FC3F7" d="M54,18 C72,18 82,32 82,46 C82,58 54,84 54,84 C54,84 26,58 26,46 C26,32 36,18 54,18 Z"/>
  <circle cx="54" cy="42" r="9" fill="#FFB74D"/>
  <path fill="#FFFFFF" d="M43,54 L65,54 Q67,54 67,56 L67,68 Q67,70 65,70 L43,70 Q41,70 41,68 L41,56 Q41,54 43,54 Z"/>
  <path fill="#E1F5FE" d="M46,57 L62,57 L62,64 L46,64 Z"/>
  <path fill="#FFFFFF" d="M43,64 L47,64 L47,66 L43,66 Z M61,64 L65,64 L65,66 L61,66 Z"/>
  <path fill="#FFFFFF" d="M45,70 L51,70 L51,73 L45,73 Z M57,70 L63,70 L63,73 L57,73 Z"/>
</svg>
